<svg width="2602" height="1704" viewBox="0 0 2602 1704" fill="none" xmlns="http://www.w3.org/2000/svg">
<g clip-path="url(#clip0_52_1456)">
<rect width="2602" height="1704" fill="#EEE7E1"/>
<line y1="-0.5" x2="852.002" y2="-0.5" transform="matrix(-0.00211788 -0.999998 0.999998 -0.00180118 42.4043 852)" stroke="#E5D4CF"/>
<line y1="-0.5" x2="852.002" y2="-0.5" transform="matrix(-0.00211788 -0.999998 0.999998 -0.00180118 83.0042 852)" stroke="#E5D4CF"/>
<line y1="-0.5" x2="852.002" y2="-0.5" transform="matrix(-0.00211788 -0.999998 0.999998 -0.00180118 1.80444 852)" stroke="#E5D4CF"/>
<line y1="-0.5" x2="852.002" y2="-0.5" transform="matrix(-0.00211788 -0.999998 0.999998 -0.00180118 489.003 852)" stroke="#E5D4CF"/>
<line y1="-0.5" x2="852.002" y2="-0.5" transform="matrix(-0.00211788 -0.999998 0.999998 -0.00180118 854.402 852)" stroke="#E5D4CF"/>
<line y1="-0.5" x2="852.002" y2="-0.5" transform="matrix(-0.00211788 -0.999998 0.999998 -0.00180118 123.604 852)" stroke="#E5D4CF"/>
<line y1="-0.5" x2="852.002" y2="-0.5" transform="matrix(-0.00211788 -0.999998 0.999998 -0.00180118 529.603 852)" stroke="#E5D4CF"/>
<line y1="-0.5" x2="852.002" y2="-0.5" transform="matrix(-0.00211788 -0.999998 0.999998 -0.00180118 895.001 852)" stroke="#E5D4CF"/>
<line y1="-0.5" x2="852.002" y2="-0.5" transform="matrix(-0.00211788 -0.999998 0.999998 -0.00180118 164.204 852)" stroke="#E5D4CF"/>
<line y1="-0.5" x2="852.002" y2="-0.5" transform="matrix(-0.00211788 -0.999998 0.999998 -0.00180118 570.203 852)" stroke="#E5D4CF"/>
<line y1="-0.5" x2="852.002" y2="-0.5" transform="matrix(-0.00211788 -0.999998 0.999998 -0.00180118 935.601 852)" stroke="#E5D4CF"/>
<line y1="-0.5" x2="852.002" y2="-0.5" transform="matrix(-0.00211788 -0.999998 0.999998 -0.00180118 204.804 852)" stroke="#E5D4CF"/>
<line y1="-0.5" x2="852.002" y2="-0.5" transform="matrix(-0.00211788 -0.999998 0.999998 -0.00180118 610.802 852)" stroke="#E5D4CF"/>
<line y1="-0.5" x2="852.002" y2="-0.5" transform="matrix(-0.00211788 -0.999998 0.999998 -0.00180118 976.201 852)" stroke="#E5D4CF"/>
<line y1="-0.5" x2="852.002" y2="-0.5" transform="matrix(-0.00211788 -0.999998 0.999998 -0.00180118 245.404 852)" stroke="#E5D4CF"/>
<line y1="-0.5" x2="852.002" y2="-0.5" transform="matrix(-0.00211788 -0.999998 0.999998 -0.00180118 651.402 852)" stroke="#E5D4CF"/>
<line y1="-0.5" x2="852.002" y2="-0.5" transform="matrix(-0.00211788 -0.999998 0.999998 -0.00180118 1016.8 852)" stroke="#E5D4CF"/>
<line y1="-0.5" x2="852.002" y2="-0.5" transform="matrix(-0.00211788 -0.999998 0.999998 -0.00180118 286.003 852)" stroke="#E5D4CF"/>
<line y1="-0.5" x2="852.002" y2="-0.5" transform="matrix(-0.00211788 -0.999998 0.999998 -0.00180118 692.002 852)" stroke="#E5D4CF"/>
<line y1="-0.5" x2="852.002" y2="-0.5" transform="matrix(-0.00211788 -0.999998 0.999998 -0.00180118 1057.4 852)" stroke="#E5D4CF"/>
<line y1="-0.5" x2="852.002" y2="-0.5" transform="matrix(-0.00211788 -0.999998 0.999998 -0.00180118 326.603 852)" stroke="#E5D4CF"/>
<line y1="-0.5" x2="852.002" y2="-0.5" transform="matrix(-0.00211788 -0.999998 0.999998 -0.00180118 732.602 852)" stroke="#E5D4CF"/>
<line y1="-0.5" x2="852.002" y2="-0.5" transform="matrix(-0.00211788 -0.999998 0.999998 -0.00180118 1098 852)" stroke="#E5D4CF"/>
<line y1="-0.5" x2="852.002" y2="-0.5" transform="matrix(-0.00211788 -0.999998 0.999998 -0.00180118 367.203 852)" stroke="#E5D4CF"/>
<line y1="-0.5" x2="852.002" y2="-0.5" transform="matrix(-0.00211788 -0.999998 0.999998 -0.00180118 773.202 852)" stroke="#E5D4CF"/>
<line y1="-0.5" x2="852.002" y2="-0.5" transform="matrix(-0.00211788 -0.999998 0.999998 -0.00180118 1138.6 852)" stroke="#E5D4CF"/>
<line y1="-0.5" x2="852.002" y2="-0.5" transform="matrix(-0.00211788 -0.999998 0.999998 -0.00180118 407.803 852)" stroke="#E5D4CF"/>
<line y1="-0.5" x2="852.002" y2="-0.5" transform="matrix(-0.00211788 -0.999998 0.999998 -0.00180118 813.802 852)" stroke="#E5D4CF"/>
<line y1="-0.5" x2="852.002" y2="-0.5" transform="matrix(-0.00211788 -0.999998 0.999998 -0.00180118 1179.2 852)" stroke="#E5D4CF"/>
<line y1="-0.5" x2="852.002" y2="-0.5" transform="matrix(-0.00211788 -0.999998 0.999998 -0.00180118 448.403 852)" stroke="#E5D4CF"/>
<line y1="-0.5" x2="852.002" y2="-0.5" transform="matrix(-0.00211788 -0.999998 0.999998 -0.00180118 1260.4 852)" stroke="#E5D4CF"/>
<line y1="-0.5" x2="852.002" y2="-0.5" transform="matrix(-0.00211788 -0.999998 0.999998 -0.00180118 1301 852)" stroke="#E5D4CF"/>
<line y1="-0.5" x2="852.002" y2="-0.5" transform="matrix(-0.00211788 -0.999998 0.999998 -0.00180118 1219.8 852)" stroke="#E5D4CF"/>
<line y1="41.1016" x2="1299.2" y2="41.1016" stroke="#E5D4CF"/>
<line y1="187.539" x2="1299.2" y2="187.539" stroke="#E5D4CF"/>
<line y1="150.93" x2="1299.2" y2="150.93" stroke="#E5D4CF"/>
<line y1="114.32" x2="1299.2" y2="114.32" stroke="#E5D4CF"/>
<line y1="77.7109" x2="1299.2" y2="77.7109" stroke="#E5D4CF"/>
<line y1="480.414" x2="1299.2" y2="480.414" stroke="#E5D4CF"/>
<line y1="443.805" x2="1299.2" y2="443.805" stroke="#E5D4CF"/>
<line y1="626.852" x2="1299.2" y2="626.852" stroke="#E5D4CF"/>
<line y1="590.242" x2="1299.2" y2="590.242" stroke="#E5D4CF"/>
<line y1="553.633" x2="1299.2" y2="553.633" stroke="#E5D4CF"/>
<line y1="517.023" x2="1299.2" y2="517.023" stroke="#E5D4CF"/>
<line y1="700.07" x2="1299.2" y2="700.07" stroke="#E5D4CF"/>
<line y1="663.461" x2="1299.2" y2="663.461" stroke="#E5D4CF"/>
<line y1="809.898" x2="1299.2" y2="809.898" stroke="#E5D4CF"/>
<line y1="773.289" x2="1299.2" y2="773.289" stroke="#E5D4CF"/>
<line y1="736.68" x2="1299.2" y2="736.68" stroke="#E5D4CF"/>
<line y1="260.758" x2="1299.2" y2="260.758" stroke="#E5D4CF"/>
<line y1="224.148" x2="1299.2" y2="224.148" stroke="#E5D4CF"/>
<line y1="407.195" x2="1299.2" y2="407.195" stroke="#E5D4CF"/>
<line y1="370.586" x2="1299.2" y2="370.586" stroke="#E5D4CF"/>
<line y1="333.977" x2="1299.2" y2="333.977" stroke="#E5D4CF"/>
<line y1="297.367" x2="1299.2" y2="297.367" stroke="#E5D4CF"/>
<line y1="851.5" x2="1299.2" y2="851.5" stroke="#E5D4CF"/>
<line y1="-0.5" x2="852.002" y2="-0.5" transform="matrix(-0.00211788 -0.999998 0.999998 -0.00180118 43.4043 1704)" stroke="#E5D4CF"/>
<line y1="-0.5" x2="852.002" y2="-0.5" transform="matrix(-0.00211788 -0.999998 0.999998 -0.00180118 84.0042 1704)" stroke="#E5D4CF"/>
<line y1="-0.5" x2="852.002" y2="-0.5" transform="matrix(-0.00211788 -0.999998 0.999998 -0.00180118 2.80444 1704)" stroke="#E5D4CF"/>
<line y1="-0.5" x2="852.002" y2="-0.5" transform="matrix(-0.00211788 -0.999998 0.999998 -0.00180118 490.003 1704)" stroke="#E5D4CF"/>
<line y1="-0.5" x2="852.002" y2="-0.5" transform="matrix(-0.00211788 -0.999998 0.999998 -0.00180118 855.402 1704)" stroke="#E5D4CF"/>
<line y1="-0.5" x2="852.002" y2="-0.5" transform="matrix(-0.00211788 -0.999998 0.999998 -0.00180118 124.604 1704)" stroke="#E5D4CF"/>
<line y1="-0.5" x2="852.002" y2="-0.5" transform="matrix(-0.00211788 -0.999998 0.999998 -0.00180118 530.603 1704)" stroke="#E5D4CF"/>
<line y1="-0.5" x2="852.002" y2="-0.5" transform="matrix(-0.00211788 -0.999998 0.999998 -0.00180118 896.001 1704)" stroke="#E5D4CF"/>
<line y1="-0.5" x2="852.002" y2="-0.5" transform="matrix(-0.00211788 -0.999998 0.999998 -0.00180118 165.204 1704)" stroke="#E5D4CF"/>
<line y1="-0.5" x2="852.002" y2="-0.5" transform="matrix(-0.00211788 -0.999998 0.999998 -0.00180118 571.203 1704)" stroke="#E5D4CF"/>
<line y1="-0.5" x2="852.002" y2="-0.5" transform="matrix(-0.00211788 -0.999998 0.999998 -0.00180118 936.601 1704)" stroke="#E5D4CF"/>
<line y1="-0.5" x2="852.002" y2="-0.5" transform="matrix(-0.00211788 -0.999998 0.999998 -0.00180118 205.804 1704)" stroke="#E5D4CF"/>
<line y1="-0.5" x2="852.002" y2="-0.5" transform="matrix(-0.00211788 -0.999998 0.999998 -0.00180118 611.802 1704)" stroke="#E5D4CF"/>
<line y1="-0.5" x2="852.002" y2="-0.5" transform="matrix(-0.00211788 -0.999998 0.999998 -0.00180118 977.201 1704)" stroke="#E5D4CF"/>
<line y1="-0.5" x2="852.002" y2="-0.5" transform="matrix(-0.00211788 -0.999998 0.999998 -0.00180118 246.404 1704)" stroke="#E5D4CF"/>
<line y1="-0.5" x2="852.002" y2="-0.5" transform="matrix(-0.00211788 -0.999998 0.999998 -0.00180118 652.402 1704)" stroke="#E5D4CF"/>
<line y1="-0.5" x2="852.002" y2="-0.5" transform="matrix(-0.00211788 -0.999998 0.999998 -0.00180118 1017.8 1704)" stroke="#E5D4CF"/>
<line y1="-0.5" x2="852.002" y2="-0.5" transform="matrix(-0.00211788 -0.999998 0.999998 -0.00180118 287.003 1704)" stroke="#E5D4CF"/>
<line y1="-0.5" x2="852.002" y2="-0.5" transform="matrix(-0.00211788 -0.999998 0.999998 -0.00180118 693.002 1704)" stroke="#E5D4CF"/>
<line y1="-0.5" x2="852.002" y2="-0.5" transform="matrix(-0.00211788 -0.999998 0.999998 -0.00180118 1058.4 1704)" stroke="#E5D4CF"/>
<line y1="-0.5" x2="852.002" y2="-0.5" transform="matrix(-0.00211788 -0.999998 0.999998 -0.00180118 327.603 1704)" stroke="#E5D4CF"/>
<line y1="-0.5" x2="852.002" y2="-0.5" transform="matrix(-0.00211788 -0.999998 0.999998 -0.00180118 733.602 1704)" stroke="#E5D4CF"/>
<line y1="-0.5" x2="852.002" y2="-0.5" transform="matrix(-0.00211788 -0.999998 0.999998 -0.00180118 1099 1704)" stroke="#E5D4CF"/>
<line y1="-0.5" x2="852.002" y2="-0.5" transform="matrix(-0.00211788 -0.999998 0.999998 -0.00180118 368.203 1704)" stroke="#E5D4CF"/>
<line y1="-0.5" x2="852.002" y2="-0.5" transform="matrix(-0.00211788 -0.999998 0.999998 -0.00180118 774.202 1704)" stroke="#E5D4CF"/>
<line y1="-0.5" x2="852.002" y2="-0.5" transform="matrix(-0.00211788 -0.999998 0.999998 -0.00180118 1139.6 1704)" stroke="#E5D4CF"/>
<line y1="-0.5" x2="852.002" y2="-0.5" transform="matrix(-0.00211788 -0.999998 0.999998 -0.00180118 408.803 1704)" stroke="#E5D4CF"/>
<line y1="-0.5" x2="852.002" y2="-0.5" transform="matrix(-0.00211788 -0.999998 0.999998 -0.00180118 814.802 1704)" stroke="#E5D4CF"/>
<line y1="-0.5" x2="852.002" y2="-0.5" transform="matrix(-0.00211788 -0.999998 0.999998 -0.00180118 1180.2 1704)" stroke="#E5D4CF"/>
<line y1="-0.5" x2="852.002" y2="-0.5" transform="matrix(-0.00211788 -0.999998 0.999998 -0.00180118 449.403 1704)" stroke="#E5D4CF"/>
<line y1="-0.5" x2="852.002" y2="-0.5" transform="matrix(-0.00211788 -0.999998 0.999998 -0.00180118 1261.4 1704)" stroke="#E5D4CF"/>
<line y1="-0.5" x2="852.002" y2="-0.5" transform="matrix(-0.00211788 -0.999998 0.999998 -0.00180118 1302 1704)" stroke="#E5D4CF"/>
<line y1="-0.5" x2="852.002" y2="-0.5" transform="matrix(-0.00211788 -0.999998 0.999998 -0.00180118 1220.8 1704)" stroke="#E5D4CF"/>
<line x1="1" y1="893.102" x2="1300.2" y2="893.102" stroke="#E5D4CF"/>
<line x1="1" y1="1039.54" x2="1300.2" y2="1039.54" stroke="#E5D4CF"/>
<line x1="1" y1="1002.93" x2="1300.2" y2="1002.93" stroke="#E5D4CF"/>
<line x1="1" y1="966.32" x2="1300.2" y2="966.32" stroke="#E5D4CF"/>
<line x1="1" y1="929.711" x2="1300.2" y2="929.711" stroke="#E5D4CF"/>
<line x1="1" y1="1332.41" x2="1300.2" y2="1332.41" stroke="#E5D4CF"/>
<line x1="1" y1="1295.8" x2="1300.2" y2="1295.8" stroke="#E5D4CF"/>
<line x1="1" y1="1478.85" x2="1300.2" y2="1478.85" stroke="#E5D4CF"/>
<line x1="1" y1="1442.24" x2="1300.2" y2="1442.24" stroke="#E5D4CF"/>
<line x1="1" y1="1405.63" x2="1300.2" y2="1405.63" stroke="#E5D4CF"/>
<line x1="1" y1="1369.02" x2="1300.2" y2="1369.02" stroke="#E5D4CF"/>
<line x1="1" y1="1552.07" x2="1300.2" y2="1552.07" stroke="#E5D4CF"/>
<line x1="1" y1="1515.46" x2="1300.2" y2="1515.46" stroke="#E5D4CF"/>
<line x1="1" y1="1661.9" x2="1300.2" y2="1661.9" stroke="#E5D4CF"/>
<line x1="1" y1="1625.29" x2="1300.2" y2="1625.29" stroke="#E5D4CF"/>
<line x1="1" y1="1588.68" x2="1300.2" y2="1588.68" stroke="#E5D4CF"/>
<line x1="1" y1="1112.76" x2="1300.2" y2="1112.76" stroke="#E5D4CF"/>
<line x1="1" y1="1076.15" x2="1300.2" y2="1076.15" stroke="#E5D4CF"/>
<line x1="1" y1="1259.2" x2="1300.2" y2="1259.2" stroke="#E5D4CF"/>
<line x1="1" y1="1222.59" x2="1300.2" y2="1222.59" stroke="#E5D4CF"/>
<line x1="1" y1="1185.98" x2="1300.2" y2="1185.98" stroke="#E5D4CF"/>
<line x1="1" y1="1149.37" x2="1300.2" y2="1149.37" stroke="#E5D4CF"/>
<line x1="1" y1="1703.5" x2="1300.2" y2="1703.5" stroke="#E5D4CF"/>
<line x1="1" y1="851.5" x2="1300.2" y2="851.5" stroke="#E5D4CF"/>
<line y1="-0.5" x2="852.002" y2="-0.5" transform="matrix(-0.00211788 -0.999998 0.999998 -0.00180118 1341.4 852)" stroke="#E5D4CF"/>
<line y1="-0.5" x2="852.002" y2="-0.5" transform="matrix(-0.00211788 -0.999998 0.999998 -0.00180118 1382 852)" stroke="#E5D4CF"/>
<line y1="-0.5" x2="852.002" y2="-0.5" transform="matrix(-0.00211788 -0.999998 0.999998 -0.00180118 1300.8 852)" stroke="#E5D4CF"/>
<line y1="-0.5" x2="852.002" y2="-0.5" transform="matrix(-0.00211788 -0.999998 0.999998 -0.00180118 1788 852)" stroke="#E5D4CF"/>
<line y1="-0.5" x2="852.002" y2="-0.5" transform="matrix(-0.00211788 -0.999998 0.999998 -0.00180118 2153.4 852)" stroke="#E5D4CF"/>
<line y1="-0.5" x2="852.002" y2="-0.5" transform="matrix(-0.00211788 -0.999998 0.999998 -0.00180118 1422.6 852)" stroke="#E5D4CF"/>
<line y1="-0.5" x2="852.002" y2="-0.5" transform="matrix(-0.00211788 -0.999998 0.999998 -0.00180118 1828.6 852)" stroke="#E5D4CF"/>
<line y1="-0.5" x2="852.002" y2="-0.5" transform="matrix(-0.00211788 -0.999998 0.999998 -0.00180118 2194 852)" stroke="#E5D4CF"/>
<line y1="-0.5" x2="852.002" y2="-0.5" transform="matrix(-0.00211788 -0.999998 0.999998 -0.00180118 1463.2 852)" stroke="#E5D4CF"/>
<line y1="-0.5" x2="852.002" y2="-0.5" transform="matrix(-0.00211788 -0.999998 0.999998 -0.00180118 1869.2 852)" stroke="#E5D4CF"/>
<line y1="-0.5" x2="852.002" y2="-0.5" transform="matrix(-0.00211788 -0.999998 0.999998 -0.00180118 2234.6 852)" stroke="#E5D4CF"/>
<line y1="-0.5" x2="852.002" y2="-0.5" transform="matrix(-0.00211788 -0.999998 0.999998 -0.00180118 1503.8 852)" stroke="#E5D4CF"/>
<line y1="-0.5" x2="852.002" y2="-0.5" transform="matrix(-0.00211788 -0.999998 0.999998 -0.00180118 1909.8 852)" stroke="#E5D4CF"/>
<line y1="-0.5" x2="852.002" y2="-0.5" transform="matrix(-0.00211788 -0.999998 0.999998 -0.00180118 2275.2 852)" stroke="#E5D4CF"/>
<line y1="-0.5" x2="852.002" y2="-0.5" transform="matrix(-0.00211788 -0.999998 0.999998 -0.00180118 1544.4 852)" stroke="#E5D4CF"/>
<line y1="-0.5" x2="852.002" y2="-0.5" transform="matrix(-0.00211788 -0.999998 0.999998 -0.00180118 1950.4 852)" stroke="#E5D4CF"/>
<line y1="-0.5" x2="852.002" y2="-0.5" transform="matrix(-0.00211788 -0.999998 0.999998 -0.00180118 2315.8 852)" stroke="#E5D4CF"/>
<line y1="-0.5" x2="852.002" y2="-0.5" transform="matrix(-0.00211788 -0.999998 0.999998 -0.00180118 1585 852)" stroke="#E5D4CF"/>
<line y1="-0.5" x2="852.002" y2="-0.5" transform="matrix(-0.00211788 -0.999998 0.999998 -0.00180118 1991 852)" stroke="#E5D4CF"/>
<line y1="-0.5" x2="852.002" y2="-0.5" transform="matrix(-0.00211788 -0.999998 0.999998 -0.00180118 2356.4 852)" stroke="#E5D4CF"/>
<line y1="-0.5" x2="852.002" y2="-0.5" transform="matrix(-0.00211788 -0.999998 0.999998 -0.00180118 1625.6 852)" stroke="#E5D4CF"/>
<line y1="-0.5" x2="852.002" y2="-0.5" transform="matrix(-0.00211788 -0.999998 0.999998 -0.00180118 2031.6 852)" stroke="#E5D4CF"/>
<line y1="-0.5" x2="852.002" y2="-0.5" transform="matrix(-0.00211788 -0.999998 0.999998 -0.00180118 2397 852)" stroke="#E5D4CF"/>
<line y1="-0.5" x2="852.002" y2="-0.5" transform="matrix(-0.00211788 -0.999998 0.999998 -0.00180118 1666.2 852)" stroke="#E5D4CF"/>
<line y1="-0.5" x2="852.002" y2="-0.5" transform="matrix(-0.00211788 -0.999998 0.999998 -0.00180118 2072.2 852)" stroke="#E5D4CF"/>
<line y1="-0.5" x2="852.002" y2="-0.5" transform="matrix(-0.00211788 -0.999998 0.999998 -0.00180118 2437.6 852)" stroke="#E5D4CF"/>
<line y1="-0.5" x2="852.002" y2="-0.5" transform="matrix(-0.00211788 -0.999998 0.999998 -0.00180118 1706.8 852)" stroke="#E5D4CF"/>
<line y1="-0.5" x2="852.002" y2="-0.5" transform="matrix(-0.00211788 -0.999998 0.999998 -0.00180118 2112.8 852)" stroke="#E5D4CF"/>
<line y1="-0.5" x2="852.002" y2="-0.5" transform="matrix(-0.00211788 -0.999998 0.999998 -0.00180118 2478.2 852)" stroke="#E5D4CF"/>
<line y1="-0.5" x2="852.002" y2="-0.5" transform="matrix(-0.00211788 -0.999998 0.999998 -0.00180118 1747.4 852)" stroke="#E5D4CF"/>
<line y1="-0.5" x2="852.002" y2="-0.5" transform="matrix(-0.00211788 -0.999998 0.999998 -0.00180118 2559.4 852)" stroke="#E5D4CF"/>
<line y1="-0.5" x2="852.002" y2="-0.5" transform="matrix(-0.00211788 -0.999998 0.999998 -0.00180118 2600 852)" stroke="#E5D4CF"/>
<line y1="-0.5" x2="852.002" y2="-0.5" transform="matrix(-0.00211788 -0.999998 0.999998 -0.00180118 2518.8 852)" stroke="#E5D4CF"/>
<line x1="1299" y1="41.1016" x2="2598.2" y2="41.1016" stroke="#E5D4CF"/>
<line x1="1299" y1="187.539" x2="2598.2" y2="187.539" stroke="#E5D4CF"/>
<line x1="1299" y1="150.93" x2="2598.2" y2="150.93" stroke="#E5D4CF"/>
<line x1="1299" y1="114.32" x2="2598.2" y2="114.32" stroke="#E5D4CF"/>
<line x1="1299" y1="77.7109" x2="2598.2" y2="77.7109" stroke="#E5D4CF"/>
<line x1="1299" y1="480.414" x2="2598.2" y2="480.414" stroke="#E5D4CF"/>
<line x1="1299" y1="443.805" x2="2598.2" y2="443.805" stroke="#E5D4CF"/>
<line x1="1299" y1="626.852" x2="2598.2" y2="626.852" stroke="#E5D4CF"/>
<line x1="1299" y1="590.242" x2="2598.2" y2="590.242" stroke="#E5D4CF"/>
<line x1="1299" y1="553.633" x2="2598.2" y2="553.633" stroke="#E5D4CF"/>
<line x1="1299" y1="517.023" x2="2598.2" y2="517.023" stroke="#E5D4CF"/>
<line x1="1299" y1="700.07" x2="2598.2" y2="700.07" stroke="#E5D4CF"/>
<line x1="1299" y1="663.461" x2="2598.2" y2="663.461" stroke="#E5D4CF"/>
<line x1="1299" y1="809.898" x2="2598.2" y2="809.898" stroke="#E5D4CF"/>
<line x1="1299" y1="773.289" x2="2598.2" y2="773.289" stroke="#E5D4CF"/>
<line x1="1299" y1="736.68" x2="2598.2" y2="736.68" stroke="#E5D4CF"/>
<line x1="1299" y1="260.758" x2="2598.2" y2="260.758" stroke="#E5D4CF"/>
<line x1="1299" y1="224.148" x2="2598.2" y2="224.148" stroke="#E5D4CF"/>
<line x1="1299" y1="407.195" x2="2598.2" y2="407.195" stroke="#E5D4CF"/>
<line x1="1299" y1="370.586" x2="2598.2" y2="370.586" stroke="#E5D4CF"/>
<line x1="1299" y1="333.977" x2="2598.2" y2="333.977" stroke="#E5D4CF"/>
<line x1="1299" y1="297.367" x2="2598.2" y2="297.367" stroke="#E5D4CF"/>
<line x1="1299" y1="851.5" x2="2598.2" y2="851.5" stroke="#E5D4CF"/>
<line y1="-0.5" x2="852.002" y2="-0.5" transform="matrix(-0.00211788 -0.999998 0.999998 -0.00180118 1342.4 1704)" stroke="#E5D4CF"/>
<line y1="-0.5" x2="852.002" y2="-0.5" transform="matrix(-0.00211788 -0.999998 0.999998 -0.00180118 1383 1704)" stroke="#E5D4CF"/>
<line y1="-0.5" x2="852.002" y2="-0.5" transform="matrix(-0.00211788 -0.999998 0.999998 -0.00180118 1301.8 1704)" stroke="#E5D4CF"/>
<line y1="-0.5" x2="852.002" y2="-0.5" transform="matrix(-0.00211788 -0.999998 0.999998 -0.00180118 1789 1704)" stroke="#E5D4CF"/>
<line y1="-0.5" x2="852.002" y2="-0.5" transform="matrix(-0.00211788 -0.999998 0.999998 -0.00180118 2154.4 1704)" stroke="#E5D4CF"/>
<line y1="-0.5" x2="852.002" y2="-0.5" transform="matrix(-0.00211788 -0.999998 0.999998 -0.00180118 1423.6 1704)" stroke="#E5D4CF"/>
<line y1="-0.5" x2="852.002" y2="-0.5" transform="matrix(-0.00211788 -0.999998 0.999998 -0.00180118 1829.6 1704)" stroke="#E5D4CF"/>
<line y1="-0.5" x2="852.002" y2="-0.5" transform="matrix(-0.00211788 -0.999998 0.999998 -0.00180118 2195 1704)" stroke="#E5D4CF"/>
<line y1="-0.5" x2="852.002" y2="-0.5" transform="matrix(-0.00211788 -0.999998 0.999998 -0.00180118 1464.2 1704)" stroke="#E5D4CF"/>
<line y1="-0.5" x2="852.002" y2="-0.5" transform="matrix(-0.00211788 -0.999998 0.999998 -0.00180118 1870.2 1704)" stroke="#E5D4CF"/>
<line y1="-0.5" x2="852.002" y2="-0.5" transform="matrix(-0.00211788 -0.999998 0.999998 -0.00180118 2235.6 1704)" stroke="#E5D4CF"/>
<line y1="-0.5" x2="852.002" y2="-0.5" transform="matrix(-0.00211788 -0.999998 0.999998 -0.00180118 1504.8 1704)" stroke="#E5D4CF"/>
<line y1="-0.5" x2="852.002" y2="-0.5" transform="matrix(-0.00211788 -0.999998 0.999998 -0.00180118 1910.8 1704)" stroke="#E5D4CF"/>
<line y1="-0.5" x2="852.002" y2="-0.5" transform="matrix(-0.00211788 -0.999998 0.999998 -0.00180118 2276.2 1704)" stroke="#E5D4CF"/>
<line y1="-0.5" x2="852.002" y2="-0.5" transform="matrix(-0.00211788 -0.999998 0.999998 -0.00180118 1545.4 1704)" stroke="#E5D4CF"/>
<line y1="-0.5" x2="852.002" y2="-0.5" transform="matrix(-0.00211788 -0.999998 0.999998 -0.00180118 1951.4 1704)" stroke="#E5D4CF"/>
<line y1="-0.5" x2="852.002" y2="-0.5" transform="matrix(-0.00211788 -0.999998 0.999998 -0.00180118 2316.8 1704)" stroke="#E5D4CF"/>
<line y1="-0.5" x2="852.002" y2="-0.5" transform="matrix(-0.00211788 -0.999998 0.999998 -0.00180118 1586 1704)" stroke="#E5D4CF"/>
<line y1="-0.5" x2="852.002" y2="-0.5" transform="matrix(-0.00211788 -0.999998 0.999998 -0.00180118 1992 1704)" stroke="#E5D4CF"/>
<line y1="-0.5" x2="852.002" y2="-0.5" transform="matrix(-0.00211788 -0.999998 0.999998 -0.00180118 2357.4 1704)" stroke="#E5D4CF"/>
<line y1="-0.5" x2="852.002" y2="-0.5" transform="matrix(-0.00211788 -0.999998 0.999998 -0.00180118 1626.6 1704)" stroke="#E5D4CF"/>
<line y1="-0.5" x2="852.002" y2="-0.5" transform="matrix(-0.00211788 -0.999998 0.999998 -0.00180118 2032.6 1704)" stroke="#E5D4CF"/>
<line y1="-0.5" x2="852.002" y2="-0.5" transform="matrix(-0.00211788 -0.999998 0.999998 -0.00180118 2398 1704)" stroke="#E5D4CF"/>
<line y1="-0.5" x2="852.002" y2="-0.5" transform="matrix(-0.00211788 -0.999998 0.999998 -0.00180118 1667.2 1704)" stroke="#E5D4CF"/>
<line y1="-0.5" x2="852.002" y2="-0.5" transform="matrix(-0.00211788 -0.999998 0.999998 -0.00180118 2073.2 1704)" stroke="#E5D4CF"/>
<line y1="-0.5" x2="852.002" y2="-0.5" transform="matrix(-0.00211788 -0.999998 0.999998 -0.00180118 2438.6 1704)" stroke="#E5D4CF"/>
<line y1="-0.5" x2="852.002" y2="-0.5" transform="matrix(-0.00211788 -0.999998 0.999998 -0.00180118 1707.8 1704)" stroke="#E5D4CF"/>
<line y1="-0.5" x2="852.002" y2="-0.5" transform="matrix(-0.00211788 -0.999998 0.999998 -0.00180118 2113.8 1704)" stroke="#E5D4CF"/>
<line y1="-0.5" x2="852.002" y2="-0.5" transform="matrix(-0.00211788 -0.999998 0.999998 -0.00180118 2479.2 1704)" stroke="#E5D4CF"/>
<line y1="-0.5" x2="852.002" y2="-0.5" transform="matrix(-0.00211788 -0.999998 0.999998 -0.00180118 1748.4 1704)" stroke="#E5D4CF"/>
<line y1="-0.5" x2="852.002" y2="-0.5" transform="matrix(-0.00211788 -0.999998 0.999998 -0.00180118 2560.4 1704)" stroke="#E5D4CF"/>
<line y1="-0.5" x2="852.002" y2="-0.5" transform="matrix(-0.00211788 -0.999998 0.999998 -0.00180118 2601 1704)" stroke="#E5D4CF"/>
<line y1="-0.5" x2="852.002" y2="-0.5" transform="matrix(-0.00211788 -0.999998 0.999998 -0.00180118 2519.8 1704)" stroke="#E5D4CF"/>
<line x1="1300" y1="893.102" x2="2599.2" y2="893.102" stroke="#E5D4CF"/>
<line x1="1300" y1="1039.54" x2="2599.2" y2="1039.54" stroke="#E5D4CF"/>
<line x1="1300" y1="1002.93" x2="2599.2" y2="1002.93" stroke="#E5D4CF"/>
<line x1="1300" y1="966.32" x2="2599.2" y2="966.32" stroke="#E5D4CF"/>
<line x1="1300" y1="929.711" x2="2599.2" y2="929.711" stroke="#E5D4CF"/>
<line x1="1300" y1="1332.41" x2="2599.2" y2="1332.41" stroke="#E5D4CF"/>
<line x1="1300" y1="1295.8" x2="2599.2" y2="1295.8" stroke="#E5D4CF"/>
<line x1="1300" y1="1478.85" x2="2599.2" y2="1478.85" stroke="#E5D4CF"/>
<line x1="1300" y1="1442.24" x2="2599.2" y2="1442.24" stroke="#E5D4CF"/>
<line x1="1300" y1="1405.63" x2="2599.2" y2="1405.63" stroke="#E5D4CF"/>
<line x1="1300" y1="1369.02" x2="2599.2" y2="1369.02" stroke="#E5D4CF"/>
<line x1="1300" y1="1552.07" x2="2599.2" y2="1552.07" stroke="#E5D4CF"/>
<line x1="1300" y1="1515.46" x2="2599.2" y2="1515.46" stroke="#E5D4CF"/>
<line x1="1300" y1="1661.9" x2="2599.2" y2="1661.9" stroke="#E5D4CF"/>
<line x1="1300" y1="1625.29" x2="2599.2" y2="1625.29" stroke="#E5D4CF"/>
<line x1="1300" y1="1588.68" x2="2599.2" y2="1588.68" stroke="#E5D4CF"/>
<line x1="1300" y1="1112.76" x2="2599.2" y2="1112.76" stroke="#E5D4CF"/>
<line x1="1300" y1="1076.15" x2="2599.2" y2="1076.15" stroke="#E5D4CF"/>
<line x1="1300" y1="1259.2" x2="2599.2" y2="1259.2" stroke="#E5D4CF"/>
<line x1="1300" y1="1222.59" x2="2599.2" y2="1222.59" stroke="#E5D4CF"/>
<line x1="1300" y1="1185.98" x2="2599.2" y2="1185.98" stroke="#E5D4CF"/>
<line x1="1300" y1="1149.37" x2="2599.2" y2="1149.37" stroke="#E5D4CF"/>
<line x1="1300" y1="1703.5" x2="2599.2" y2="1703.5" stroke="#E5D4CF"/>
<line x1="1300" y1="851.5" x2="2599.2" y2="851.5" stroke="#E5D4CF"/>
</g>
<defs>
<clipPath id="clip0_52_1456">
<rect width="2602" height="1704" fill="white"/>
</clipPath>
</defs>
</svg>
